%TF.GenerationSoftware,KiCad,Pcbnew,8.99.0-unknown-77b1d367df~178~ubuntu23.10.1*%
%TF.CreationDate,2024-11-14T21:45:02-05:00*%
%TF.ProjectId,nRF54L15Dongle,6e524635-344c-4313-9544-6f6e676c652e,rev?*%
%TF.SameCoordinates,Original*%
%TF.FileFunction,Profile,NP*%
%FSLAX46Y46*%
G04 Gerber Fmt 4.6, Leading zero omitted, Abs format (unit mm)*
G04 Created by KiCad (PCBNEW 8.99.0-unknown-77b1d367df~178~ubuntu23.10.1) date 2024-11-14 21:45:02*
%MOMM*%
%LPD*%
G01*
G04 APERTURE LIST*
%TA.AperFunction,Profile*%
%ADD10C,0.150000*%
%TD*%
G04 APERTURE END LIST*
D10*
X166950000Y-64090000D02*
X166950000Y-64450000D01*
X177300000Y-84250000D02*
G75*
G02*
X176800000Y-84750000I-500000J0D01*
G01*
X163200000Y-64750000D02*
X165700000Y-64750000D01*
X172750000Y-63790000D02*
X167250000Y-63790000D01*
X173350000Y-64750000D02*
G75*
G02*
X173050000Y-64450000I0J300000D01*
G01*
X173050000Y-64450000D02*
X173050000Y-64090000D01*
X164400000Y-101400000D02*
X175600000Y-101400000D01*
X164400000Y-85250000D02*
X164400000Y-101400000D01*
X173350000Y-64750000D02*
X174300000Y-64750000D01*
X176800000Y-84750000D02*
X176100000Y-84750000D01*
X175600000Y-85250000D02*
G75*
G02*
X176100000Y-84750000I500000J0D01*
G01*
X163900000Y-84750000D02*
G75*
G02*
X164400000Y-85250000I0J-500000D01*
G01*
X176800000Y-64750000D02*
G75*
G02*
X177300000Y-65250000I0J-500000D01*
G01*
X166950000Y-64090000D02*
G75*
G02*
X167250000Y-63790000I300000J0D01*
G01*
X162700000Y-65250000D02*
G75*
G02*
X163200000Y-64750000I500000J0D01*
G01*
X166950000Y-64450000D02*
G75*
G02*
X166650000Y-64750000I-300000J0D01*
G01*
X166650000Y-64750000D02*
X165700000Y-64750000D01*
X174300000Y-64750000D02*
X176800000Y-64750000D01*
X163200000Y-84750000D02*
G75*
G02*
X162700000Y-84250000I0J500000D01*
G01*
X177300000Y-65250000D02*
X177300000Y-84250000D01*
X172750000Y-63790000D02*
G75*
G02*
X173050000Y-64090000I0J-300000D01*
G01*
X163900000Y-84750000D02*
X163200000Y-84750000D01*
X162700000Y-65250000D02*
X162700000Y-84250000D01*
X175600000Y-85250000D02*
X175600000Y-101400000D01*
M02*
