%TF.GenerationSoftware,KiCad,Pcbnew,8.99.0-unknown-77b1d367df~178~ubuntu23.10.1*%
%TF.CreationDate,2024-11-14T21:45:02-05:00*%
%TF.ProjectId,nRF54L15Dongle,6e524635-344c-4313-9544-6f6e676c652e,rev?*%
%TF.SameCoordinates,Original*%
%TF.FileFunction,Other,Comment*%
%FSLAX46Y46*%
G04 Gerber Fmt 4.6, Leading zero omitted, Abs format (unit mm)*
G04 Created by KiCad (PCBNEW 8.99.0-unknown-77b1d367df~178~ubuntu23.10.1) date 2024-11-14 21:45:02*
%MOMM*%
%LPD*%
G01*
G04 APERTURE LIST*
%ADD10C,0.125000*%
%ADD11C,0.070000*%
G04 APERTURE END LIST*
D10*
X173071426Y-98118047D02*
X172833331Y-98118047D01*
X173119045Y-97975190D02*
X172952379Y-98475190D01*
X172952379Y-98475190D02*
X172785712Y-97975190D01*
X172619046Y-98308523D02*
X172619046Y-97975190D01*
X172619046Y-98260904D02*
X172595236Y-98284714D01*
X172595236Y-98284714D02*
X172547617Y-98308523D01*
X172547617Y-98308523D02*
X172476189Y-98308523D01*
X172476189Y-98308523D02*
X172428570Y-98284714D01*
X172428570Y-98284714D02*
X172404760Y-98237095D01*
X172404760Y-98237095D02*
X172404760Y-97975190D01*
X172238093Y-98308523D02*
X172047617Y-98308523D01*
X172166665Y-98475190D02*
X172166665Y-98046619D01*
X172166665Y-98046619D02*
X172142855Y-97999000D01*
X172142855Y-97999000D02*
X172095236Y-97975190D01*
X172095236Y-97975190D02*
X172047617Y-97975190D01*
X171690475Y-97999000D02*
X171738094Y-97975190D01*
X171738094Y-97975190D02*
X171833332Y-97975190D01*
X171833332Y-97975190D02*
X171880951Y-97999000D01*
X171880951Y-97999000D02*
X171904760Y-98046619D01*
X171904760Y-98046619D02*
X171904760Y-98237095D01*
X171904760Y-98237095D02*
X171880951Y-98284714D01*
X171880951Y-98284714D02*
X171833332Y-98308523D01*
X171833332Y-98308523D02*
X171738094Y-98308523D01*
X171738094Y-98308523D02*
X171690475Y-98284714D01*
X171690475Y-98284714D02*
X171666665Y-98237095D01*
X171666665Y-98237095D02*
X171666665Y-98189476D01*
X171666665Y-98189476D02*
X171904760Y-98141857D01*
X171452380Y-98308523D02*
X171452380Y-97975190D01*
X171452380Y-98260904D02*
X171428570Y-98284714D01*
X171428570Y-98284714D02*
X171380951Y-98308523D01*
X171380951Y-98308523D02*
X171309523Y-98308523D01*
X171309523Y-98308523D02*
X171261904Y-98284714D01*
X171261904Y-98284714D02*
X171238094Y-98237095D01*
X171238094Y-98237095D02*
X171238094Y-97975190D01*
X170999999Y-98308523D02*
X170999999Y-97975190D01*
X170999999Y-98260904D02*
X170976189Y-98284714D01*
X170976189Y-98284714D02*
X170928570Y-98308523D01*
X170928570Y-98308523D02*
X170857142Y-98308523D01*
X170857142Y-98308523D02*
X170809523Y-98284714D01*
X170809523Y-98284714D02*
X170785713Y-98237095D01*
X170785713Y-98237095D02*
X170785713Y-97975190D01*
X170333332Y-97975190D02*
X170333332Y-98237095D01*
X170333332Y-98237095D02*
X170357142Y-98284714D01*
X170357142Y-98284714D02*
X170404761Y-98308523D01*
X170404761Y-98308523D02*
X170499999Y-98308523D01*
X170499999Y-98308523D02*
X170547618Y-98284714D01*
X170333332Y-97999000D02*
X170380951Y-97975190D01*
X170380951Y-97975190D02*
X170499999Y-97975190D01*
X170499999Y-97975190D02*
X170547618Y-97999000D01*
X170547618Y-97999000D02*
X170571427Y-98046619D01*
X170571427Y-98046619D02*
X170571427Y-98094238D01*
X170571427Y-98094238D02*
X170547618Y-98141857D01*
X170547618Y-98141857D02*
X170499999Y-98165666D01*
X170499999Y-98165666D02*
X170380951Y-98165666D01*
X170380951Y-98165666D02*
X170333332Y-98189476D01*
X169714285Y-97975190D02*
X169714285Y-98475190D01*
X169428571Y-97975190D02*
X169642856Y-98260904D01*
X169428571Y-98475190D02*
X169714285Y-98189476D01*
X169023809Y-97999000D02*
X169071428Y-97975190D01*
X169071428Y-97975190D02*
X169166666Y-97975190D01*
X169166666Y-97975190D02*
X169214285Y-97999000D01*
X169214285Y-97999000D02*
X169238094Y-98046619D01*
X169238094Y-98046619D02*
X169238094Y-98237095D01*
X169238094Y-98237095D02*
X169214285Y-98284714D01*
X169214285Y-98284714D02*
X169166666Y-98308523D01*
X169166666Y-98308523D02*
X169071428Y-98308523D01*
X169071428Y-98308523D02*
X169023809Y-98284714D01*
X169023809Y-98284714D02*
X168999999Y-98237095D01*
X168999999Y-98237095D02*
X168999999Y-98189476D01*
X168999999Y-98189476D02*
X169238094Y-98141857D01*
X168595238Y-97999000D02*
X168642857Y-97975190D01*
X168642857Y-97975190D02*
X168738095Y-97975190D01*
X168738095Y-97975190D02*
X168785714Y-97999000D01*
X168785714Y-97999000D02*
X168809523Y-98046619D01*
X168809523Y-98046619D02*
X168809523Y-98237095D01*
X168809523Y-98237095D02*
X168785714Y-98284714D01*
X168785714Y-98284714D02*
X168738095Y-98308523D01*
X168738095Y-98308523D02*
X168642857Y-98308523D01*
X168642857Y-98308523D02*
X168595238Y-98284714D01*
X168595238Y-98284714D02*
X168571428Y-98237095D01*
X168571428Y-98237095D02*
X168571428Y-98189476D01*
X168571428Y-98189476D02*
X168809523Y-98141857D01*
X168357143Y-98308523D02*
X168357143Y-97808523D01*
X168357143Y-98284714D02*
X168309524Y-98308523D01*
X168309524Y-98308523D02*
X168214286Y-98308523D01*
X168214286Y-98308523D02*
X168166667Y-98284714D01*
X168166667Y-98284714D02*
X168142857Y-98260904D01*
X168142857Y-98260904D02*
X168119048Y-98213285D01*
X168119048Y-98213285D02*
X168119048Y-98070428D01*
X168119048Y-98070428D02*
X168142857Y-98022809D01*
X168142857Y-98022809D02*
X168166667Y-97999000D01*
X168166667Y-97999000D02*
X168214286Y-97975190D01*
X168214286Y-97975190D02*
X168309524Y-97975190D01*
X168309524Y-97975190D02*
X168357143Y-97999000D01*
X167833333Y-97975190D02*
X167880952Y-97999000D01*
X167880952Y-97999000D02*
X167904762Y-98022809D01*
X167904762Y-98022809D02*
X167928571Y-98070428D01*
X167928571Y-98070428D02*
X167928571Y-98213285D01*
X167928571Y-98213285D02*
X167904762Y-98260904D01*
X167904762Y-98260904D02*
X167880952Y-98284714D01*
X167880952Y-98284714D02*
X167833333Y-98308523D01*
X167833333Y-98308523D02*
X167761905Y-98308523D01*
X167761905Y-98308523D02*
X167714286Y-98284714D01*
X167714286Y-98284714D02*
X167690476Y-98260904D01*
X167690476Y-98260904D02*
X167666667Y-98213285D01*
X167666667Y-98213285D02*
X167666667Y-98070428D01*
X167666667Y-98070428D02*
X167690476Y-98022809D01*
X167690476Y-98022809D02*
X167714286Y-97999000D01*
X167714286Y-97999000D02*
X167761905Y-97975190D01*
X167761905Y-97975190D02*
X167833333Y-97975190D01*
X167238095Y-98308523D02*
X167238095Y-97975190D01*
X167452381Y-98308523D02*
X167452381Y-98046619D01*
X167452381Y-98046619D02*
X167428571Y-97999000D01*
X167428571Y-97999000D02*
X167380952Y-97975190D01*
X167380952Y-97975190D02*
X167309524Y-97975190D01*
X167309524Y-97975190D02*
X167261905Y-97999000D01*
X167261905Y-97999000D02*
X167238095Y-98022809D01*
X167071428Y-98308523D02*
X166880952Y-98308523D01*
X167000000Y-98475190D02*
X167000000Y-98046619D01*
X167000000Y-98046619D02*
X166976190Y-97999000D01*
X166976190Y-97999000D02*
X166928571Y-97975190D01*
X166928571Y-97975190D02*
X166880952Y-97975190D01*
D11*
X168761904Y-81681407D02*
X168761904Y-81281407D01*
X168990475Y-81681407D02*
X168819046Y-81452836D01*
X168990475Y-81281407D02*
X168761904Y-81509979D01*
X169161904Y-81471883D02*
X169295237Y-81471883D01*
X169352380Y-81681407D02*
X169161904Y-81681407D01*
X169161904Y-81681407D02*
X169161904Y-81281407D01*
X169161904Y-81281407D02*
X169352380Y-81281407D01*
X169523809Y-81471883D02*
X169657142Y-81471883D01*
X169714285Y-81681407D02*
X169523809Y-81681407D01*
X169523809Y-81681407D02*
X169523809Y-81281407D01*
X169523809Y-81281407D02*
X169714285Y-81281407D01*
X169885714Y-81681407D02*
X169885714Y-81281407D01*
X169885714Y-81281407D02*
X170038095Y-81281407D01*
X170038095Y-81281407D02*
X170076190Y-81300455D01*
X170076190Y-81300455D02*
X170095237Y-81319502D01*
X170095237Y-81319502D02*
X170114285Y-81357598D01*
X170114285Y-81357598D02*
X170114285Y-81414740D01*
X170114285Y-81414740D02*
X170095237Y-81452836D01*
X170095237Y-81452836D02*
X170076190Y-81471883D01*
X170076190Y-81471883D02*
X170038095Y-81490931D01*
X170038095Y-81490931D02*
X169885714Y-81490931D01*
X170361904Y-81281407D02*
X170438095Y-81281407D01*
X170438095Y-81281407D02*
X170476190Y-81300455D01*
X170476190Y-81300455D02*
X170514285Y-81338550D01*
X170514285Y-81338550D02*
X170533333Y-81414740D01*
X170533333Y-81414740D02*
X170533333Y-81548074D01*
X170533333Y-81548074D02*
X170514285Y-81624264D01*
X170514285Y-81624264D02*
X170476190Y-81662360D01*
X170476190Y-81662360D02*
X170438095Y-81681407D01*
X170438095Y-81681407D02*
X170361904Y-81681407D01*
X170361904Y-81681407D02*
X170323809Y-81662360D01*
X170323809Y-81662360D02*
X170285714Y-81624264D01*
X170285714Y-81624264D02*
X170266666Y-81548074D01*
X170266666Y-81548074D02*
X170266666Y-81414740D01*
X170266666Y-81414740D02*
X170285714Y-81338550D01*
X170285714Y-81338550D02*
X170323809Y-81300455D01*
X170323809Y-81300455D02*
X170361904Y-81281407D01*
X170704762Y-81281407D02*
X170704762Y-81605217D01*
X170704762Y-81605217D02*
X170723809Y-81643312D01*
X170723809Y-81643312D02*
X170742857Y-81662360D01*
X170742857Y-81662360D02*
X170780952Y-81681407D01*
X170780952Y-81681407D02*
X170857143Y-81681407D01*
X170857143Y-81681407D02*
X170895238Y-81662360D01*
X170895238Y-81662360D02*
X170914285Y-81643312D01*
X170914285Y-81643312D02*
X170933333Y-81605217D01*
X170933333Y-81605217D02*
X170933333Y-81281407D01*
X171066667Y-81281407D02*
X171295238Y-81281407D01*
X171180952Y-81681407D02*
X171180952Y-81281407D01*
X168761904Y-81681407D02*
X168761904Y-81281407D01*
X168990475Y-81681407D02*
X168819046Y-81452836D01*
X168990475Y-81281407D02*
X168761904Y-81509979D01*
X169161904Y-81471883D02*
X169295237Y-81471883D01*
X169352380Y-81681407D02*
X169161904Y-81681407D01*
X169161904Y-81681407D02*
X169161904Y-81281407D01*
X169161904Y-81281407D02*
X169352380Y-81281407D01*
X169523809Y-81471883D02*
X169657142Y-81471883D01*
X169714285Y-81681407D02*
X169523809Y-81681407D01*
X169523809Y-81681407D02*
X169523809Y-81281407D01*
X169523809Y-81281407D02*
X169714285Y-81281407D01*
X169885714Y-81681407D02*
X169885714Y-81281407D01*
X169885714Y-81281407D02*
X170038095Y-81281407D01*
X170038095Y-81281407D02*
X170076190Y-81300455D01*
X170076190Y-81300455D02*
X170095237Y-81319502D01*
X170095237Y-81319502D02*
X170114285Y-81357598D01*
X170114285Y-81357598D02*
X170114285Y-81414740D01*
X170114285Y-81414740D02*
X170095237Y-81452836D01*
X170095237Y-81452836D02*
X170076190Y-81471883D01*
X170076190Y-81471883D02*
X170038095Y-81490931D01*
X170038095Y-81490931D02*
X169885714Y-81490931D01*
X170361904Y-81281407D02*
X170438095Y-81281407D01*
X170438095Y-81281407D02*
X170476190Y-81300455D01*
X170476190Y-81300455D02*
X170514285Y-81338550D01*
X170514285Y-81338550D02*
X170533333Y-81414740D01*
X170533333Y-81414740D02*
X170533333Y-81548074D01*
X170533333Y-81548074D02*
X170514285Y-81624264D01*
X170514285Y-81624264D02*
X170476190Y-81662360D01*
X170476190Y-81662360D02*
X170438095Y-81681407D01*
X170438095Y-81681407D02*
X170361904Y-81681407D01*
X170361904Y-81681407D02*
X170323809Y-81662360D01*
X170323809Y-81662360D02*
X170285714Y-81624264D01*
X170285714Y-81624264D02*
X170266666Y-81548074D01*
X170266666Y-81548074D02*
X170266666Y-81414740D01*
X170266666Y-81414740D02*
X170285714Y-81338550D01*
X170285714Y-81338550D02*
X170323809Y-81300455D01*
X170323809Y-81300455D02*
X170361904Y-81281407D01*
X170704762Y-81281407D02*
X170704762Y-81605217D01*
X170704762Y-81605217D02*
X170723809Y-81643312D01*
X170723809Y-81643312D02*
X170742857Y-81662360D01*
X170742857Y-81662360D02*
X170780952Y-81681407D01*
X170780952Y-81681407D02*
X170857143Y-81681407D01*
X170857143Y-81681407D02*
X170895238Y-81662360D01*
X170895238Y-81662360D02*
X170914285Y-81643312D01*
X170914285Y-81643312D02*
X170933333Y-81605217D01*
X170933333Y-81605217D02*
X170933333Y-81281407D01*
X171066667Y-81281407D02*
X171295238Y-81281407D01*
X171180952Y-81681407D02*
X171180952Y-81281407D01*
M02*
