%TF.GenerationSoftware,KiCad,Pcbnew,8.99.0-unknown-77b1d367df~178~ubuntu23.10.1*%
%TF.CreationDate,2024-11-14T21:45:02-05:00*%
%TF.ProjectId,nRF54L15Dongle,6e524635-344c-4313-9544-6f6e676c652e,rev?*%
%TF.SameCoordinates,Original*%
%TF.FileFunction,Copper,L1,Top*%
%TF.FilePolarity,Positive*%
%FSLAX46Y46*%
G04 Gerber Fmt 4.6, Leading zero omitted, Abs format (unit mm)*
G04 Created by KiCad (PCBNEW 8.99.0-unknown-77b1d367df~178~ubuntu23.10.1) date 2024-11-14 21:45:02*
%MOMM*%
%LPD*%
G01*
G04 APERTURE LIST*
G04 Aperture macros list*
%AMRoundRect*
0 Rectangle with rounded corners*
0 $1 Rounding radius*
0 $2 $3 $4 $5 $6 $7 $8 $9 X,Y pos of 4 corners*
0 Add a 4 corners polygon primitive as box body*
4,1,4,$2,$3,$4,$5,$6,$7,$8,$9,$2,$3,0*
0 Add four circle primitives for the rounded corners*
1,1,$1+$1,$2,$3*
1,1,$1+$1,$4,$5*
1,1,$1+$1,$6,$7*
1,1,$1+$1,$8,$9*
0 Add four rect primitives between the rounded corners*
20,1,$1+$1,$2,$3,$4,$5,0*
20,1,$1+$1,$4,$5,$6,$7,0*
20,1,$1+$1,$6,$7,$8,$9,0*
20,1,$1+$1,$8,$9,$2,$3,0*%
G04 Aperture macros list end*
%TA.AperFunction,SMDPad,CuDef*%
%ADD10C,0.400000*%
%TD*%
%TA.AperFunction,SMDPad,CuDef*%
%ADD11R,0.400000X0.500000*%
%TD*%
%TA.AperFunction,ConnectorPad*%
%ADD12C,0.787400*%
%TD*%
%TA.AperFunction,SMDPad,CuDef*%
%ADD13RoundRect,0.100000X0.130000X0.100000X-0.130000X0.100000X-0.130000X-0.100000X0.130000X-0.100000X0*%
%TD*%
%TA.AperFunction,SMDPad,CuDef*%
%ADD14R,0.650000X1.050000*%
%TD*%
%TA.AperFunction,SMDPad,CuDef*%
%ADD15RoundRect,0.150000X0.150000X-0.512500X0.150000X0.512500X-0.150000X0.512500X-0.150000X-0.512500X0*%
%TD*%
%TA.AperFunction,SMDPad,CuDef*%
%ADD16RoundRect,0.100000X0.100000X-0.130000X0.100000X0.130000X-0.100000X0.130000X-0.100000X-0.130000X0*%
%TD*%
%TA.AperFunction,SMDPad,CuDef*%
%ADD17RoundRect,0.100000X-0.100000X0.130000X-0.100000X-0.130000X0.100000X-0.130000X0.100000X0.130000X0*%
%TD*%
%TA.AperFunction,SMDPad,CuDef*%
%ADD18RoundRect,0.140000X0.170000X-0.140000X0.170000X0.140000X-0.170000X0.140000X-0.170000X-0.140000X0*%
%TD*%
%TA.AperFunction,SMDPad,CuDef*%
%ADD19RoundRect,0.100000X-0.130000X-0.100000X0.130000X-0.100000X0.130000X0.100000X-0.130000X0.100000X0*%
%TD*%
%TA.AperFunction,SMDPad,CuDef*%
%ADD20R,0.380000X1.000000*%
%TD*%
%TA.AperFunction,SMDPad,CuDef*%
%ADD21R,0.700000X1.150000*%
%TD*%
%TA.AperFunction,SMDPad,CuDef*%
%ADD22R,0.800000X0.900000*%
%TD*%
%TA.AperFunction,SMDPad,CuDef*%
%ADD23RoundRect,0.140000X-0.140000X-0.170000X0.140000X-0.170000X0.140000X0.170000X-0.140000X0.170000X0*%
%TD*%
%TA.AperFunction,SMDPad,CuDef*%
%ADD24RoundRect,0.140000X0.140000X0.170000X-0.140000X0.170000X-0.140000X-0.170000X0.140000X-0.170000X0*%
%TD*%
%TA.AperFunction,SMDPad,CuDef*%
%ADD25RoundRect,0.062500X0.350000X0.062500X-0.350000X0.062500X-0.350000X-0.062500X0.350000X-0.062500X0*%
%TD*%
%TA.AperFunction,SMDPad,CuDef*%
%ADD26RoundRect,0.062500X0.062500X0.350000X-0.062500X0.350000X-0.062500X-0.350000X0.062500X-0.350000X0*%
%TD*%
%TA.AperFunction,HeatsinkPad*%
%ADD27R,3.600000X3.600000*%
%TD*%
%TA.AperFunction,ViaPad*%
%ADD28C,0.600000*%
%TD*%
%TA.AperFunction,Conductor*%
%ADD29C,0.254000*%
%TD*%
%TA.AperFunction,Conductor*%
%ADD30C,0.127000*%
%TD*%
G04 APERTURE END LIST*
D10*
%TO.P,U4,A1,GND*%
%TO.N,GND*%
X174050000Y-92700000D03*
%TO.P,U4,A3,P1.09*%
%TO.N,unconnected-(U4-P1.09-PadA3)*%
X174050000Y-90900000D03*
%TO.P,U4,A9,GND*%
%TO.N,GND*%
X174050000Y-85500000D03*
D11*
X174050000Y-85250000D03*
D10*
%TO.P,U4,B1,GND*%
X173150000Y-92700000D03*
%TO.P,U4,B2,P1.10*%
%TO.N,unconnected-(U4-P1.10-PadB2)*%
X173150000Y-91800000D03*
%TO.P,U4,B3,P1.11/AIN4*%
%TO.N,unconnected-(U4-P1.11{slash}AIN4-PadB3)*%
X173150000Y-90900000D03*
%TO.P,U4,B4,P1.12/AIN5*%
%TO.N,unconnected-(U4-P1.12{slash}AIN5-PadB4)*%
X173150000Y-90000000D03*
%TO.P,U4,B5,P1.13/AIN6*%
%TO.N,unconnected-(U4-P1.13{slash}AIN6-PadB5)*%
X173150000Y-89100000D03*
%TO.P,U4,B6,P1.14/AIN7*%
%TO.N,unconnected-(U4-P1.14{slash}AIN7-PadB6)*%
X173150000Y-88200000D03*
%TO.P,U4,B7,GND*%
%TO.N,GND*%
X173150000Y-87300000D03*
%TO.P,U4,B8,VDD*%
%TO.N,Net-(C1-Pad1)*%
X173150000Y-86400000D03*
%TO.P,U4,B9,GND*%
%TO.N,GND*%
X173150000Y-85500000D03*
D11*
X173150000Y-85250000D03*
D10*
%TO.P,U4,C8,VDD*%
%TO.N,Net-(C1-Pad1)*%
X172250000Y-86400000D03*
%TO.P,U4,C9,P1.01/XL2*%
%TO.N,unconnected-(U4-P1.01{slash}XL2-PadC9)*%
X172250000Y-85500000D03*
D11*
X172250000Y-85250000D03*
D10*
%TO.P,U4,D1,GND*%
%TO.N,GND*%
X171350000Y-92700000D03*
%TO.P,U4,D8,P1.00/XL1*%
%TO.N,unconnected-(U4-P1.00{slash}XL1-PadD8)*%
X171350000Y-86400000D03*
%TO.P,U4,D9,P1.02/NFC1*%
%TO.N,unconnected-(U4-P1.02{slash}NFC1-PadD9)*%
X171350000Y-85500000D03*
D11*
X171350000Y-85250000D03*
D10*
%TO.P,U4,E1,GND*%
%TO.N,GND*%
X170450000Y-92700000D03*
%TO.P,U4,E8,P1.03/NFC2*%
%TO.N,unconnected-(U4-P1.03{slash}NFC2-PadE8)*%
X170450000Y-86400000D03*
%TO.P,U4,E9,P1.04/AIN0*%
%TO.N,Net-(U4-P1.04{slash}AIN0)*%
X170450000Y-85500000D03*
D11*
X170450000Y-85250000D03*
D10*
%TO.P,U4,F1,GND*%
%TO.N,GND*%
X169550000Y-92700000D03*
%TO.P,U4,F8,P1.05/AIN1*%
%TO.N,unconnected-(U4-P1.05{slash}AIN1-PadF8)*%
X169550000Y-86400000D03*
%TO.P,U4,F9,P1.06/AIN2*%
%TO.N,unconnected-(U4-P1.06{slash}AIN2-PadF9)*%
X169550000Y-85500000D03*
D11*
X169550000Y-85250000D03*
D10*
%TO.P,U4,G2,~{RESET}*%
%TO.N,/TRG_~{RESET}*%
X168650000Y-91800000D03*
%TO.P,U4,G8,P1.08*%
%TO.N,unconnected-(U4-P1.08-PadG8)*%
X168650000Y-86400000D03*
%TO.P,U4,G9,P1.07/AIN3*%
%TO.N,unconnected-(U4-P1.07{slash}AIN3-PadG9)*%
X168650000Y-85500000D03*
D11*
X168650000Y-85250000D03*
D10*
%TO.P,U4,H2,P0.04*%
%TO.N,unconnected-(U4-P0.04-PadH2)*%
X167750000Y-91800000D03*
%TO.P,U4,H8,GND*%
%TO.N,GND*%
X167750000Y-86400000D03*
%TO.P,U4,H9,P2.00*%
%TO.N,/SPI_MISO*%
X167750000Y-85500000D03*
D11*
X167750000Y-85250000D03*
D10*
%TO.P,U4,J2,P0.03*%
%TO.N,unconnected-(U4-P0.03-PadJ2)*%
X166850000Y-91800000D03*
%TO.P,U4,J3,SWDIO*%
%TO.N,/TRG_SWDIO*%
X166850000Y-90900000D03*
%TO.P,U4,J4,P0.00*%
%TO.N,/UART_TX*%
X166850000Y-90000000D03*
%TO.P,U4,J5,P2.09*%
%TO.N,unconnected-(U4-P2.09-PadJ5)*%
X166850000Y-89100000D03*
%TO.P,U4,J6,P2.07*%
%TO.N,unconnected-(U4-P2.07-PadJ6)*%
X166850000Y-88200000D03*
%TO.P,U4,J7,P2.03*%
%TO.N,unconnected-(U4-P2.03-PadJ7)*%
X166850000Y-87300000D03*
%TO.P,U4,J8,P2.02*%
%TO.N,/SPI_MOSI*%
X166850000Y-86400000D03*
%TO.P,U4,J9,P2.01*%
%TO.N,/SPI_SCK*%
X166850000Y-85500000D03*
D11*
X166850000Y-85250000D03*
D10*
%TO.P,U4,K2,P0.02*%
%TO.N,unconnected-(U4-P0.02-PadK2)*%
X165950000Y-91800000D03*
%TO.P,U4,K3,SWDCLK*%
%TO.N,/TRG_SWDCLK*%
X165950000Y-90900000D03*
%TO.P,U4,K4,P0.01*%
%TO.N,/UART_RX*%
X165950000Y-90000000D03*
%TO.P,U4,K5,P2.10*%
%TO.N,unconnected-(U4-P2.10-PadK5)*%
X165950000Y-89100000D03*
%TO.P,U4,K6,P2.08*%
%TO.N,unconnected-(U4-P2.08-PadK6)*%
X165950000Y-88200000D03*
%TO.P,U4,K7,P2.06*%
%TO.N,unconnected-(U4-P2.06-PadK7)*%
X165950000Y-87300000D03*
%TO.P,U4,K8,P2.05*%
%TO.N,unconnected-(U4-P2.05-PadK8)*%
X165950000Y-86400000D03*
%TO.P,U4,K9,P2.04*%
%TO.N,unconnected-(U4-P2.04-PadK9)*%
X165950000Y-85500000D03*
D11*
%TO.N,unconnected-(U4-P2.04-PadK9)_1*%
X165950000Y-85250000D03*
%TD*%
D12*
%TO.P,J1,1,VCC*%
%TO.N,VDD*%
X171270000Y-80865000D03*
%TO.P,J1,2,SWDIO*%
%TO.N,/TRG_SWDIO*%
X171270000Y-82135000D03*
%TO.P,J1,3,~{RESET}*%
%TO.N,/TRG_~{RESET}*%
X170000000Y-80865000D03*
%TO.P,J1,4,SWCLK*%
%TO.N,/TRG_SWDCLK*%
X170000000Y-82135000D03*
%TO.P,J1,5,GND*%
%TO.N,GND*%
X168730000Y-80865000D03*
%TO.P,J1,6,SWO*%
%TO.N,unconnected-(J1-SWO-Pad6)*%
X168730000Y-82135000D03*
%TD*%
D13*
%TO.P,C23,1*%
%TO.N,GND*%
X165080000Y-73450000D03*
%TO.P,C23,2*%
%TO.N,Net-(U2-XC1)*%
X164440000Y-73450000D03*
%TD*%
D14*
%TO.P,SW2,1,1*%
%TO.N,/TRG_~{RESET}*%
X163525000Y-83575000D03*
X163525000Y-79425000D03*
%TO.P,SW2,2,2*%
%TO.N,GND*%
X165675000Y-83575000D03*
X165675000Y-79450000D03*
%TD*%
D15*
%TO.P,U3,1,I/O1*%
%TO.N,/D+*%
X169050000Y-69937500D03*
%TO.P,U3,2,GND*%
%TO.N,GND*%
X170000000Y-69937500D03*
%TO.P,U3,3,I/O2*%
%TO.N,/D-*%
X170950000Y-69937500D03*
%TO.P,U3,4,I/O2*%
X170950000Y-67662500D03*
%TO.P,U3,5,VBUS*%
%TO.N,VBUS*%
X170000000Y-67662500D03*
%TO.P,U3,6,I/O1*%
%TO.N,/D+*%
X169050000Y-67662500D03*
%TD*%
D16*
%TO.P,C15,1*%
%TO.N,Net-(U2-DEC3)*%
X166550000Y-75340000D03*
%TO.P,C15,2*%
%TO.N,GND*%
X166550000Y-74700000D03*
%TD*%
D17*
%TO.P,R1,1*%
%TO.N,Net-(P1-CC)*%
X167900000Y-67180000D03*
%TO.P,R1,2*%
%TO.N,GND*%
X167900000Y-67820000D03*
%TD*%
D18*
%TO.P,C12,1*%
%TO.N,VBUS*%
X173630000Y-73190000D03*
%TO.P,C12,2*%
%TO.N,GND*%
X173630000Y-72230000D03*
%TD*%
D17*
%TO.P,C20,1*%
%TO.N,Net-(C17-Pad1)*%
X166550000Y-76980000D03*
%TO.P,C20,2*%
%TO.N,GND*%
X166550000Y-77620000D03*
%TD*%
D14*
%TO.P,SW1,1,1*%
%TO.N,GND*%
X174325000Y-83575000D03*
X174325000Y-79425000D03*
%TO.P,SW1,2,2*%
%TO.N,Net-(U4-P1.04{slash}AIN0)*%
X176475000Y-83575000D03*
X176475000Y-79450000D03*
%TD*%
D19*
%TO.P,C24,1*%
%TO.N,GND*%
X164490000Y-76950000D03*
%TO.P,C24,2*%
%TO.N,Net-(U2-XC2)*%
X165130000Y-76950000D03*
%TD*%
D17*
%TO.P,C18,1*%
%TO.N,Net-(C17-Pad1)*%
X171800000Y-78380000D03*
%TO.P,C18,2*%
%TO.N,GND*%
X171800000Y-79020000D03*
%TD*%
D20*
%TO.P,P1,A1,GND*%
%TO.N,GND*%
X167250000Y-64790000D03*
%TO.P,P1,A2*%
%TO.N,N/C*%
X167750000Y-64790000D03*
%TO.P,P1,A3*%
X168250000Y-64790000D03*
%TO.P,P1,A4,VBUS*%
%TO.N,VBUS*%
X168750000Y-64790000D03*
%TO.P,P1,A5,CC*%
%TO.N,Net-(P1-CC)*%
X169250000Y-64790000D03*
%TO.P,P1,A6,D+*%
%TO.N,/D+*%
X169750000Y-64790000D03*
%TO.P,P1,A7,D-*%
%TO.N,/D-*%
X170250000Y-64790000D03*
%TO.P,P1,A8*%
%TO.N,N/C*%
X170750000Y-64790000D03*
%TO.P,P1,A9,VBUS*%
%TO.N,VBUS*%
X171250000Y-64790000D03*
%TO.P,P1,A10*%
%TO.N,N/C*%
X171750000Y-64790000D03*
%TO.P,P1,A11*%
X172250000Y-64790000D03*
%TO.P,P1,A12,GND*%
%TO.N,GND*%
X172750000Y-64790000D03*
D21*
%TO.P,P1,S1,SHIELD*%
X166580000Y-65630000D03*
%TD*%
D17*
%TO.P,C14,1*%
%TO.N,/DEC4_6*%
X171000000Y-78375000D03*
%TO.P,C14,2*%
%TO.N,GND*%
X171000000Y-79015000D03*
%TD*%
D22*
%TO.P,Y3,1,1*%
%TO.N,Net-(U2-XC1)*%
X164210000Y-74500000D03*
%TO.P,Y3,2,2*%
%TO.N,GND*%
X164210000Y-75900000D03*
%TO.P,Y3,3,3*%
%TO.N,Net-(U2-XC2)*%
X165310000Y-75900000D03*
%TO.P,Y3,4,4*%
%TO.N,GND*%
X165310000Y-74500000D03*
%TD*%
D23*
%TO.P,C1,1*%
%TO.N,Net-(C1-Pad1)*%
X172160000Y-83960000D03*
%TO.P,C1,2*%
%TO.N,GND*%
X173120000Y-83960000D03*
%TD*%
D13*
%TO.P,C19,1*%
%TO.N,Net-(C17-Pad1)*%
X167920000Y-71440000D03*
%TO.P,C19,2*%
%TO.N,GND*%
X167280000Y-71440000D03*
%TD*%
D17*
%TO.P,C16,1*%
%TO.N,Net-(U2-DEC1)*%
X173450000Y-76980000D03*
%TO.P,C16,2*%
%TO.N,GND*%
X173450000Y-77620000D03*
%TD*%
D23*
%TO.P,C13,1*%
%TO.N,Net-(U2-DECUSB)*%
X172130000Y-71340000D03*
%TO.P,C13,2*%
%TO.N,GND*%
X173090000Y-71340000D03*
%TD*%
D24*
%TO.P,C17,1*%
%TO.N,Net-(C17-Pad1)*%
X174560000Y-74080000D03*
%TO.P,C17,2*%
%TO.N,GND*%
X173600000Y-74080000D03*
%TD*%
D25*
%TO.P,U2,1,DEC1*%
%TO.N,Net-(U2-DEC1)*%
X172437500Y-76700000D03*
%TO.P,U2,2,P0.00/XL1*%
%TO.N,/SPI_MOSI*%
X172437500Y-76300000D03*
%TO.P,U2,3,P0.01/XL2*%
%TO.N,/SPI_MISO*%
X172437500Y-75900000D03*
%TO.P,U2,4,P0.04/AIN2*%
%TO.N,/SPI_SCK*%
X172437500Y-75500000D03*
%TO.P,U2,5,P0.05/AIN3*%
%TO.N,unconnected-(U2-P0.05{slash}AIN3-Pad5)*%
X172437500Y-75100000D03*
%TO.P,U2,6,P1.09*%
%TO.N,unconnected-(U2-P1.09-Pad6)*%
X172437500Y-74700000D03*
%TO.P,U2,7,P0.11*%
%TO.N,unconnected-(U2-P0.11-Pad7)*%
X172437500Y-74300000D03*
%TO.P,U2,8,VDD*%
%TO.N,Net-(C17-Pad1)*%
X172437500Y-73900000D03*
%TO.P,U2,9,VDDH*%
%TO.N,VBUS*%
X172437500Y-73500000D03*
%TO.P,U2,10,VBUS*%
X172437500Y-73100000D03*
D26*
%TO.P,U2,11,DECUSB*%
%TO.N,Net-(U2-DECUSB)*%
X171800000Y-72462500D03*
%TO.P,U2,12,D-*%
%TO.N,/D-*%
X171400000Y-72462500D03*
%TO.P,U2,13,D+*%
%TO.N,/D+*%
X171000000Y-72462500D03*
%TO.P,U2,14,P0.15*%
%TO.N,unconnected-(U2-P0.15-Pad14)*%
X170600000Y-72462500D03*
%TO.P,U2,15,P0.17*%
%TO.N,unconnected-(U2-P0.17-Pad15)*%
X170200000Y-72462500D03*
%TO.P,U2,16,P0.18/~{RESET}*%
%TO.N,Net-(J2-~{RESET})*%
X169800000Y-72462500D03*
%TO.P,U2,17,P0.20*%
%TO.N,unconnected-(U2-P0.20-Pad17)*%
X169400000Y-72462500D03*
%TO.P,U2,18,VDD*%
%TO.N,Net-(C17-Pad1)*%
X169000000Y-72462500D03*
%TO.P,U2,19,SWDIO*%
%TO.N,Net-(J2-SWDIO)*%
X168600000Y-72462500D03*
%TO.P,U2,20,SWDCLK*%
%TO.N,Net-(J2-SWCLK)*%
X168200000Y-72462500D03*
D25*
%TO.P,U2,21,DEC5/NC*%
%TO.N,unconnected-(U2-DEC5{slash}NC-Pad21)*%
X167562500Y-73100000D03*
%TO.P,U2,22,P0.09/NFC1*%
%TO.N,unconnected-(U2-P0.09{slash}NFC1-Pad22)*%
X167562500Y-73500000D03*
%TO.P,U2,23,P0.10/NFC2*%
%TO.N,unconnected-(U2-P0.10{slash}NFC2-Pad23)*%
X167562500Y-73900000D03*
%TO.P,U2,24,ANT*%
%TO.N,unconnected-(U2-ANT-Pad24)*%
X167562500Y-74300000D03*
%TO.P,U2,25,VSS_PA*%
%TO.N,GND*%
X167562500Y-74700000D03*
%TO.P,U2,26,DEC6*%
%TO.N,/DEC4_6*%
X167562500Y-75100000D03*
%TO.P,U2,27,DEC3*%
%TO.N,Net-(U2-DEC3)*%
X167562500Y-75500000D03*
%TO.P,U2,28,XC1*%
%TO.N,Net-(U2-XC1)*%
X167562500Y-75900000D03*
%TO.P,U2,29,XC2*%
%TO.N,Net-(U2-XC2)*%
X167562500Y-76300000D03*
%TO.P,U2,30,VDD*%
%TO.N,Net-(C17-Pad1)*%
X167562500Y-76700000D03*
D26*
%TO.P,U2,31,P0.03/AIN1*%
%TO.N,unconnected-(U2-P0.03{slash}AIN1-Pad31)*%
X168200000Y-77337500D03*
%TO.P,U2,32,P0.02/AIN0*%
%TO.N,/UART_RX*%
X168600000Y-77337500D03*
%TO.P,U2,33,P0.28/AIN4*%
%TO.N,/UART_TX*%
X169000000Y-77337500D03*
%TO.P,U2,34,P0.29/AIN5*%
%TO.N,/TRG_~{RESET}*%
X169400000Y-77337500D03*
%TO.P,U2,35,P0.30/AIN6*%
%TO.N,/TRG_SWDIO*%
X169800000Y-77337500D03*
%TO.P,U2,36,P0.31/AIN7*%
%TO.N,/TRG_SWDCLK*%
X170200000Y-77337500D03*
%TO.P,U2,37,VSS*%
%TO.N,GND*%
X170600000Y-77337500D03*
%TO.P,U2,38,DEC4*%
%TO.N,/DEC4_6*%
X171000000Y-77337500D03*
%TO.P,U2,39,DCC*%
%TO.N,unconnected-(U2-DCC-Pad39)*%
X171400000Y-77337500D03*
%TO.P,U2,40,VDD*%
%TO.N,Net-(C17-Pad1)*%
X171800000Y-77337500D03*
D27*
%TO.P,U2,41*%
%TO.N,N/C*%
X170000000Y-74900000D03*
%TD*%
D28*
%TO.N,/SPI_MOSI*%
X167750000Y-87280000D03*
%TO.N,GND*%
X168660000Y-87310000D03*
%TO.N,/SPI_MISO*%
X167750000Y-84590000D03*
%TO.N,/SPI_MOSI*%
X176450000Y-77093664D03*
%TO.N,/SPI_MISO*%
X175803500Y-76480000D03*
%TO.N,/SPI_SCK*%
X175240000Y-75860000D03*
X166860000Y-84590000D03*
%TD*%
D29*
%TO.N,GND*%
X174050000Y-92700000D02*
X169550000Y-92700000D01*
D30*
X167562500Y-74700000D02*
X166550000Y-74700000D01*
%TO.N,Net-(U2-DEC3)*%
X166550000Y-75340000D02*
X166840000Y-75340000D01*
X166840000Y-75340000D02*
X167000000Y-75500000D01*
X167000000Y-75500000D02*
X167562500Y-75500000D01*
%TO.N,Net-(U2-XC1)*%
X164210000Y-74500000D02*
X164210000Y-73940000D01*
X164210000Y-73940000D02*
X164440000Y-73710000D01*
X164440000Y-73710000D02*
X164440000Y-73450000D01*
%TO.N,Net-(U2-XC2)*%
X165310000Y-75900000D02*
X165310000Y-76550000D01*
X165310000Y-76550000D02*
X165130000Y-76730000D01*
X165130000Y-76730000D02*
X165130000Y-76950000D01*
X167562500Y-76300000D02*
X165710000Y-76300000D01*
X165710000Y-76300000D02*
X165310000Y-75900000D01*
%TO.N,/TRG_~{RESET}*%
X170000000Y-80865000D02*
X170000000Y-80230000D01*
X170000000Y-80230000D02*
X169400000Y-79630000D01*
X169400000Y-79630000D02*
X169400000Y-77337500D01*
%TO.N,/TRG_SWDCLK*%
X170200000Y-77337500D02*
X170200000Y-79230000D01*
X170200000Y-79230000D02*
X170620000Y-79650000D01*
X170620000Y-79650000D02*
X173240000Y-79650000D01*
X173240000Y-79650000D02*
X173730000Y-80140000D01*
X173730000Y-80140000D02*
X173730000Y-82190000D01*
X173730000Y-82190000D02*
X172950000Y-82970000D01*
X172950000Y-82970000D02*
X170835000Y-82970000D01*
X170835000Y-82970000D02*
X170000000Y-82135000D01*
%TO.N,/TRG_SWDIO*%
X169800000Y-77337500D02*
X169800000Y-79460000D01*
X169800000Y-79460000D02*
X170360000Y-80020000D01*
X170360000Y-80020000D02*
X172550000Y-80020000D01*
X172550000Y-80020000D02*
X173403000Y-80873000D01*
X171735000Y-82600000D02*
X171270000Y-82135000D01*
X173403000Y-80873000D02*
X173403000Y-82007000D01*
X173403000Y-82007000D02*
X172810000Y-82600000D01*
X172810000Y-82600000D02*
X171735000Y-82600000D01*
%TO.N,/SPI_MOSI*%
X166870000Y-86400000D02*
X167750000Y-87280000D01*
X166850000Y-86400000D02*
X166870000Y-86400000D01*
%TO.N,GND*%
X167750000Y-86400000D02*
X168660000Y-87310000D01*
%TO.N,/SPI_MISO*%
X167750000Y-84590000D02*
X167750000Y-85250000D01*
%TO.N,/SPI_MOSI*%
X174230000Y-76300000D02*
X172437500Y-76300000D01*
X176450000Y-77093664D02*
X175023664Y-77093664D01*
X175023664Y-77093664D02*
X174230000Y-76300000D01*
%TO.N,/SPI_MISO*%
X175803500Y-76480000D02*
X175063090Y-76480000D01*
X175063090Y-76480000D02*
X174483090Y-75900000D01*
X174483090Y-75900000D02*
X172437500Y-75900000D01*
%TO.N,/SPI_SCK*%
X174880000Y-75500000D02*
X175240000Y-75860000D01*
X172437500Y-75500000D02*
X174880000Y-75500000D01*
X166860000Y-84590000D02*
X166860000Y-85240000D01*
X166860000Y-85240000D02*
X166850000Y-85250000D01*
%TD*%
M02*
