%TF.GenerationSoftware,KiCad,Pcbnew,8.99.0-unknown-77b1d367df~178~ubuntu23.10.1*%
%TF.CreationDate,2024-11-14T21:45:02-05:00*%
%TF.ProjectId,nRF54L15Dongle,6e524635-344c-4313-9544-6f6e676c652e,rev?*%
%TF.SameCoordinates,Original*%
%TF.FileFunction,Copper,L4,Bot*%
%TF.FilePolarity,Positive*%
%FSLAX46Y46*%
G04 Gerber Fmt 4.6, Leading zero omitted, Abs format (unit mm)*
G04 Created by KiCad (PCBNEW 8.99.0-unknown-77b1d367df~178~ubuntu23.10.1) date 2024-11-14 21:45:02*
%MOMM*%
%LPD*%
G01*
G04 APERTURE LIST*
%TA.AperFunction,SMDPad,CuDef*%
%ADD10R,0.380000X1.000000*%
%TD*%
%TA.AperFunction,SMDPad,CuDef*%
%ADD11R,0.700000X1.150000*%
%TD*%
%TA.AperFunction,ConnectorPad*%
%ADD12C,0.787400*%
%TD*%
%TA.AperFunction,ViaPad*%
%ADD13C,0.600000*%
%TD*%
%TA.AperFunction,Conductor*%
%ADD14C,0.127000*%
%TD*%
G04 APERTURE END LIST*
D10*
%TO.P,P1,B1,GND*%
%TO.N,GND*%
X172750000Y-64790000D03*
%TO.P,P1,B2*%
%TO.N,N/C*%
X172250000Y-64790000D03*
%TO.P,P1,B3*%
X171750000Y-64790000D03*
%TO.P,P1,B4,VBUS*%
%TO.N,VBUS*%
X171250000Y-64790000D03*
%TO.P,P1,B5,VCONN*%
%TO.N,unconnected-(P1-VCONN-PadB5)*%
X170750000Y-64790000D03*
%TO.P,P1,B8*%
%TO.N,N/C*%
X169250000Y-64790000D03*
%TO.P,P1,B9,VBUS*%
%TO.N,VBUS*%
X168750000Y-64790000D03*
%TO.P,P1,B10*%
%TO.N,N/C*%
X168250000Y-64790000D03*
%TO.P,P1,B11*%
X167750000Y-64790000D03*
%TO.P,P1,B12,GND*%
%TO.N,GND*%
X167250000Y-64790000D03*
D11*
%TO.P,P1,S1,SHIELD*%
X173420000Y-65630000D03*
%TD*%
D12*
%TO.P,J2,1,VCC*%
%TO.N,VDD*%
X171270000Y-82135000D03*
%TO.P,J2,2,SWDIO*%
%TO.N,Net-(J2-SWDIO)*%
X171270000Y-80865000D03*
%TO.P,J2,3,~{RESET}*%
%TO.N,Net-(J2-~{RESET})*%
X170000000Y-82135000D03*
%TO.P,J2,4,SWCLK*%
%TO.N,Net-(J2-SWCLK)*%
X170000000Y-80865000D03*
%TO.P,J2,5,GND*%
%TO.N,GND*%
X168730000Y-82135000D03*
%TO.P,J2,6,SWO*%
%TO.N,unconnected-(J2-SWO-Pad6)*%
X168730000Y-80865000D03*
%TD*%
D13*
%TO.N,/SPI_MOSI*%
X167750000Y-87280000D03*
%TO.N,GND*%
X168660000Y-87310000D03*
%TO.N,/SPI_MISO*%
X167750000Y-84590000D03*
%TO.N,/SPI_MOSI*%
X176450000Y-77093664D03*
%TO.N,/SPI_MISO*%
X175803500Y-76480000D03*
%TO.N,/SPI_SCK*%
X175240000Y-75860000D03*
X166860000Y-84590000D03*
%TD*%
D14*
%TO.N,/SPI_MOSI*%
X167750000Y-85570000D02*
X168600000Y-84720000D01*
X170370000Y-84720000D02*
X170820000Y-84270000D01*
X167750000Y-87280000D02*
X167750000Y-85570000D01*
X168600000Y-84720000D02*
X170370000Y-84720000D01*
X170820000Y-84270000D02*
X175370000Y-84270000D01*
X175370000Y-84270000D02*
X176260000Y-83380000D01*
X176260000Y-78650000D02*
X176450000Y-78460000D01*
X176260000Y-83380000D02*
X176260000Y-78650000D01*
X176450000Y-78460000D02*
X176450000Y-77093664D01*
%TO.N,/SPI_MISO*%
X169360000Y-84280000D02*
X168060000Y-84280000D01*
X170550000Y-83890000D02*
X170340000Y-84100000D01*
X173660000Y-83890000D02*
X170550000Y-83890000D01*
X170160000Y-84280000D02*
X169360000Y-84280000D01*
X175803500Y-76480000D02*
X175803500Y-83168948D01*
X168060000Y-84280000D02*
X167750000Y-84590000D01*
X175803500Y-83168948D02*
X175082448Y-83890000D01*
X175082448Y-83890000D02*
X173660000Y-83890000D01*
X170340000Y-84100000D02*
X170160000Y-84280000D01*
%TO.N,/SPI_SCK*%
X166860000Y-84160000D02*
X166860000Y-84590000D01*
X170060000Y-83830000D02*
X167190000Y-83830000D01*
X167190000Y-83830000D02*
X166860000Y-84160000D01*
X170420000Y-83470000D02*
X170060000Y-83830000D01*
X175040000Y-83470000D02*
X170420000Y-83470000D01*
X175240000Y-83270000D02*
X175040000Y-83470000D01*
X175240000Y-75860000D02*
X175240000Y-83270000D01*
%TD*%
M02*
