%TF.GenerationSoftware,KiCad,Pcbnew,8.99.0-unknown-77b1d367df~178~ubuntu23.10.1*%
%TF.CreationDate,2024-11-14T21:45:02-05:00*%
%TF.ProjectId,nRF54L15Dongle,6e524635-344c-4313-9544-6f6e676c652e,rev?*%
%TF.SameCoordinates,Original*%
%TF.FileFunction,Paste,Top*%
%TF.FilePolarity,Positive*%
%FSLAX46Y46*%
G04 Gerber Fmt 4.6, Leading zero omitted, Abs format (unit mm)*
G04 Created by KiCad (PCBNEW 8.99.0-unknown-77b1d367df~178~ubuntu23.10.1) date 2024-11-14 21:45:02*
%MOMM*%
%LPD*%
G01*
G04 APERTURE LIST*
G04 Aperture macros list*
%AMRoundRect*
0 Rectangle with rounded corners*
0 $1 Rounding radius*
0 $2 $3 $4 $5 $6 $7 $8 $9 X,Y pos of 4 corners*
0 Add a 4 corners polygon primitive as box body*
4,1,4,$2,$3,$4,$5,$6,$7,$8,$9,$2,$3,0*
0 Add four circle primitives for the rounded corners*
1,1,$1+$1,$2,$3*
1,1,$1+$1,$4,$5*
1,1,$1+$1,$6,$7*
1,1,$1+$1,$8,$9*
0 Add four rect primitives between the rounded corners*
20,1,$1+$1,$2,$3,$4,$5,0*
20,1,$1+$1,$4,$5,$6,$7,0*
20,1,$1+$1,$6,$7,$8,$9,0*
20,1,$1+$1,$8,$9,$2,$3,0*%
G04 Aperture macros list end*
%ADD10C,0.400000*%
%ADD11R,0.400000X0.500000*%
%ADD12RoundRect,0.079500X0.079500X0.100500X-0.079500X0.100500X-0.079500X-0.100500X0.079500X-0.100500X0*%
%ADD13R,0.650000X1.050000*%
%ADD14RoundRect,0.150000X0.150000X-0.512500X0.150000X0.512500X-0.150000X0.512500X-0.150000X-0.512500X0*%
%ADD15RoundRect,0.079500X0.100500X-0.079500X0.100500X0.079500X-0.100500X0.079500X-0.100500X-0.079500X0*%
%ADD16RoundRect,0.079500X-0.100500X0.079500X-0.100500X-0.079500X0.100500X-0.079500X0.100500X0.079500X0*%
%ADD17RoundRect,0.140000X0.170000X-0.140000X0.170000X0.140000X-0.170000X0.140000X-0.170000X-0.140000X0*%
%ADD18RoundRect,0.079500X-0.079500X-0.100500X0.079500X-0.100500X0.079500X0.100500X-0.079500X0.100500X0*%
%ADD19R,0.380000X1.000000*%
%ADD20R,0.700000X1.150000*%
%ADD21R,0.800000X0.900000*%
%ADD22RoundRect,0.140000X-0.140000X-0.170000X0.140000X-0.170000X0.140000X0.170000X-0.140000X0.170000X0*%
%ADD23RoundRect,0.140000X0.140000X0.170000X-0.140000X0.170000X-0.140000X-0.170000X0.140000X-0.170000X0*%
%ADD24RoundRect,0.242500X0.242500X0.242500X-0.242500X0.242500X-0.242500X-0.242500X0.242500X-0.242500X0*%
%ADD25RoundRect,0.062500X0.350000X0.062500X-0.350000X0.062500X-0.350000X-0.062500X0.350000X-0.062500X0*%
%ADD26RoundRect,0.062500X0.062500X0.350000X-0.062500X0.350000X-0.062500X-0.350000X0.062500X-0.350000X0*%
G04 APERTURE END LIST*
D10*
%TO.C,U4*%
X174050000Y-92700000D03*
X174050000Y-90900000D03*
X174050000Y-85500000D03*
D11*
X174050000Y-85250000D03*
D10*
X173150000Y-92700000D03*
X173150000Y-91800000D03*
X173150000Y-90900000D03*
X173150000Y-90000000D03*
X173150000Y-89100000D03*
X173150000Y-88200000D03*
X173150000Y-87300000D03*
X173150000Y-86400000D03*
X173150000Y-85500000D03*
D11*
X173150000Y-85250000D03*
D10*
X172250000Y-86400000D03*
X172250000Y-85500000D03*
D11*
X172250000Y-85250000D03*
D10*
X171350000Y-92700000D03*
X171350000Y-86400000D03*
X171350000Y-85500000D03*
D11*
X171350000Y-85250000D03*
D10*
X170450000Y-92700000D03*
X170450000Y-86400000D03*
X170450000Y-85500000D03*
D11*
X170450000Y-85250000D03*
D10*
X169550000Y-92700000D03*
X169550000Y-86400000D03*
X169550000Y-85500000D03*
D11*
X169550000Y-85250000D03*
D10*
X168650000Y-91800000D03*
X168650000Y-86400000D03*
X168650000Y-85500000D03*
D11*
X168650000Y-85250000D03*
D10*
X167750000Y-91800000D03*
X167750000Y-86400000D03*
X167750000Y-85500000D03*
D11*
X167750000Y-85250000D03*
D10*
X166850000Y-91800000D03*
X166850000Y-90900000D03*
X166850000Y-90000000D03*
X166850000Y-89100000D03*
X166850000Y-88200000D03*
X166850000Y-87300000D03*
X166850000Y-86400000D03*
X166850000Y-85500000D03*
D11*
X166850000Y-85250000D03*
D10*
X165950000Y-91800000D03*
X165950000Y-90900000D03*
X165950000Y-90000000D03*
X165950000Y-89100000D03*
X165950000Y-88200000D03*
X165950000Y-87300000D03*
X165950000Y-86400000D03*
X165950000Y-85500000D03*
D11*
X165950000Y-85250000D03*
%TD*%
D12*
%TO.C,C23*%
X165105000Y-73450000D03*
X164415000Y-73450000D03*
%TD*%
D13*
%TO.C,SW2*%
X163525000Y-83575000D03*
X163525000Y-79425000D03*
X165675000Y-83575000D03*
X165675000Y-79450000D03*
%TD*%
D14*
%TO.C,U3*%
X169050000Y-69937500D03*
X170000000Y-69937500D03*
X170950000Y-69937500D03*
X170950000Y-67662500D03*
X170000000Y-67662500D03*
X169050000Y-67662500D03*
%TD*%
D15*
%TO.C,C15*%
X166550000Y-75365000D03*
X166550000Y-74675000D03*
%TD*%
D16*
%TO.C,R1*%
X167900000Y-67155000D03*
X167900000Y-67845000D03*
%TD*%
D17*
%TO.C,C12*%
X173630000Y-73190000D03*
X173630000Y-72230000D03*
%TD*%
D16*
%TO.C,C20*%
X166550000Y-76955000D03*
X166550000Y-77645000D03*
%TD*%
D13*
%TO.C,SW1*%
X174325000Y-83575000D03*
X174325000Y-79425000D03*
X176475000Y-83575000D03*
X176475000Y-79450000D03*
%TD*%
D18*
%TO.C,C24*%
X164465000Y-76950000D03*
X165155000Y-76950000D03*
%TD*%
D16*
%TO.C,C18*%
X171800000Y-78355000D03*
X171800000Y-79045000D03*
%TD*%
D19*
%TO.C,P1*%
X167250000Y-64790000D03*
X167750000Y-64790000D03*
X168250000Y-64790000D03*
X168750000Y-64790000D03*
X169250000Y-64790000D03*
X169750000Y-64790000D03*
X170250000Y-64790000D03*
X170750000Y-64790000D03*
X171250000Y-64790000D03*
X171750000Y-64790000D03*
X172250000Y-64790000D03*
X172750000Y-64790000D03*
D20*
X166580000Y-65630000D03*
%TD*%
D16*
%TO.C,C14*%
X171000000Y-78350000D03*
X171000000Y-79040000D03*
%TD*%
D21*
%TO.C,Y3*%
X164210000Y-74500000D03*
X164210000Y-75900000D03*
X165310000Y-75900000D03*
X165310000Y-74500000D03*
%TD*%
D22*
%TO.C,C1*%
X172160000Y-83960000D03*
X173120000Y-83960000D03*
%TD*%
D12*
%TO.C,C19*%
X167945000Y-71440000D03*
X167255000Y-71440000D03*
%TD*%
D16*
%TO.C,C16*%
X173450000Y-76955000D03*
X173450000Y-77645000D03*
%TD*%
D22*
%TO.C,C13*%
X172130000Y-71340000D03*
X173090000Y-71340000D03*
%TD*%
D23*
%TO.C,C17*%
X174560000Y-74080000D03*
X173600000Y-74080000D03*
%TD*%
D24*
%TO.C,U2*%
X171200000Y-76100000D03*
X171200000Y-74900000D03*
X171200000Y-73700000D03*
X170000000Y-76100000D03*
X170000000Y-74900000D03*
X170000000Y-73700000D03*
X168800000Y-76100000D03*
X168800000Y-74900000D03*
X168800000Y-73700000D03*
D25*
X172437500Y-76700000D03*
X172437500Y-76300000D03*
X172437500Y-75900000D03*
X172437500Y-75500000D03*
X172437500Y-75100000D03*
X172437500Y-74700000D03*
X172437500Y-74300000D03*
X172437500Y-73900000D03*
X172437500Y-73500000D03*
X172437500Y-73100000D03*
D26*
X171800000Y-72462500D03*
X171400000Y-72462500D03*
X171000000Y-72462500D03*
X170600000Y-72462500D03*
X170200000Y-72462500D03*
X169800000Y-72462500D03*
X169400000Y-72462500D03*
X169000000Y-72462500D03*
X168600000Y-72462500D03*
X168200000Y-72462500D03*
D25*
X167562500Y-73100000D03*
X167562500Y-73500000D03*
X167562500Y-73900000D03*
X167562500Y-74300000D03*
X167562500Y-74700000D03*
X167562500Y-75100000D03*
X167562500Y-75500000D03*
X167562500Y-75900000D03*
X167562500Y-76300000D03*
X167562500Y-76700000D03*
D26*
X168200000Y-77337500D03*
X168600000Y-77337500D03*
X169000000Y-77337500D03*
X169400000Y-77337500D03*
X169800000Y-77337500D03*
X170200000Y-77337500D03*
X170600000Y-77337500D03*
X171000000Y-77337500D03*
X171400000Y-77337500D03*
X171800000Y-77337500D03*
%TD*%
M02*
